<svg width="30" height="30" viewBox="0 0 30 30" fill="none" xmlns="http://www.w3.org/2000/svg">
<path fill-rule="evenodd" clip-rule="evenodd" d="M19.3826 6.36963L19.3701 10.2393L18.5282 10.2526C18.0605 10.26 17.6846 10.6402 17.6825 11.1079L17.6737 12.987L17.6611 15.708L14.2554 15.7206L12.8422 15.7258C11.7406 15.7298 10.8496 16.6241 10.8496 17.7257V18.1253V20.5176H7.45605H6.0625C4.95793 20.5176 4.0625 21.413 4.0625 22.5176V23.2764V26.0352H3.28125H3.23242C2.82792 26.0352 2.5 26.3631 2.5 26.7676C2.5 27.1721 2.82792 27.5 3.23242 27.5H15H26.7676C27.1721 27.5 27.5 27.1721 27.5 26.7676C27.5 26.3631 27.1721 26.0352 26.7676 26.0352H26.7188H25.9375V18.1494V12.2637C25.9375 11.1591 25.0421 10.2637 23.9375 10.2637H23.3984H20.8594V8.70117V7.13867H23.0078H23.1562C24.2608 7.13867 25.1562 6.24324 25.1562 5.13867V4.81934V4.5C25.1562 3.39543 24.2608 2.5 23.1562 2.5H22.2757H21.3887C20.2866 2.5 19.3922 3.3915 19.3887 4.49354L19.3826 6.36963ZM23.6914 4.81934V5.67383H22.2754H20.8594V4.81934V3.96484H22.2754H23.6914V4.81934ZM24.4727 18.8818V26.0352H21.8115H19.1504V18.8818V11.7285H21.8115H24.4727V18.8818ZM17.6855 21.6162V26.0352H15H12.3145V21.6162V17.1973H15H17.6855V21.6162ZM10.8496 24.0088V26.0352H8.18848H5.52734V24.0088V21.9824H8.18848H10.8496V24.0088Z" fill="#00A3FF"/>
</svg>
